<svg xmlns="http://www.w3.org/2000/svg" version="1.1" xmlns:xlink="http://www.w3.org/1999/xlink" xmlns:svgjs="http://svgjs.dev/svgjs" width="1000" height="623" viewBox="0 0 1000 623"><g transform="matrix(1,0,0,1,-0.6060606060606233,0.2522267206477409)"><svg viewBox="0 0 396 247" data-background-color="#ffffff" preserveAspectRatio="xMidYMid meet" height="623" width="1000" xmlns="http://www.w3.org/2000/svg" xmlns:xlink="http://www.w3.org/1999/xlink"><g id="tight-bounds" transform="matrix(1,0,0,1,0.2400000000000091,-0.09999999999999432)"><svg viewBox="0 0 395.52 247.2" height="247.2" width="395.52"><g><svg></svg></g><g><svg viewBox="0 0 395.52 247.2" height="247.2" width="395.52"><g transform="matrix(1,0,0,1,106.55419729206963,37.08)"><svg viewBox="0 0 182.41160541586072 173.04" height="173.04" width="182.41160541586072"><g><svg viewBox="0 0 182.41160541586072 173.04" height="173.04" width="182.41160541586072"><g><svg viewBox="0 0 182.41160541586072 173.04" height="173.04" width="182.41160541586072"><g><svg viewBox="0 0 182.41160541586072 173.04" height="173.04" width="182.41160541586072"><g id="textblocktransform"><svg viewBox="0 0 182.41160541586072 173.04" height="173.04" width="182.41160541586072" id="textblock"><g><svg viewBox="0 0 182.41160541586072 173.04" height="173.04" width="182.41160541586072"><g transform="matrix(1,0,0,1,0,0)"><svg width="182.41160541586072" viewBox="0.15000000596046448 -25.350000381469727 27.25 25.850000381469727" height="173.04" data-palette-color="#ee3e38"><path d="M22.2-25.2L27.4-25.25 27.1-21.55Q26.5-21.35 26.23-20.93 25.95-20.5 25.55-19.4L25.55-19.4 19.75-0.15 7.15 0.5Q6.55-2.1 4.83-9.5 3.1-16.9 2.55-18.85L2.55-18.85Q2.2-20.2 1.73-20.8 1.25-21.4 0.5-21.5L0.5-21.5 0.15-21.95 0.5-25.3Q1.1-25.3 2.75-25.25 4.4-25.2 6.3-25.2L6.3-25.2Q9.35-25.2 11.55-25.25 13.75-25.3 14.45-25.35L14.45-25.35 14.8-25 14.55-21.4Q13.5-21.3 12.88-21.18 12.25-21.05 12.15-20.88 12.05-20.7 12.05-20.15L12.05-20.15Q12.05-19.15 12.83-14 13.6-8.85 13.9-7.05L13.9-7.05 14.85-7.05Q17.8-19.6 17.8-20.7L17.8-20.7Q17.8-21.15 17.63-21.25 17.45-21.35 16.75-21.35L16.75-21.35 15.8-21.35 15.45-21.8 15.75-25.3Q16.4-25.3 18.28-25.25 20.15-25.2 22.2-25.2L22.2-25.2Z" opacity="1" transform="matrix(1,0,0,1,0,0)" fill="#ee3e38" class="undefined-text-0" data-fill-palette-color="primary" id="text-0"></path></svg></g></svg></g></svg></g></svg></g></svg></g></svg></g></svg></g><g mask="url(#ef5d2c62-c33c-4028-87d9-7efc14a8eeeb)"><g transform="matrix(4.121008139152966, 0, 0, 4.121008139152966, 6.352012357823213, 1.0000000000000142)"><svg xmlns="http://www.w3.org/2000/svg" xmlns:xlink="http://www.w3.org/1999/xlink" version="1.1" x="0" y="0" viewBox="220.49996948242188 20.799999237060547 92.89376831054688 59.500003814697266" enable-background="new 216.8 0 100 100" xml:space="preserve" height="59.500003814697266" width="92.89376831054688" class="icon-none" data-fill-palette-color="accent" id="none"><g fill="#ee3e38" data-fill-palette-color="accent"><path d="M285.6 67.4c0-3-2.3-4.4-5.2-4.4h-15.9l-6.7-18.4 0 0c-1-3.2-4-5.6-7.6-5.6-1.3 0-2.5 0.3-3.6 0.9l0 0c-14.5 7.3-22.9 20.7-26.1 40.4l19 0c0.5-8.3 2-18 8.8-23.8l7.8 11.7 0 0c0.9 1.7 2.7 3 4.7 3h19.6C283.4 71.2 285.6 70.4 285.6 67.4z" fill="#ee3e38" data-fill-palette-color="accent"></path></g><path d="M290.2 76.3c-0.4-0.8-2.3-4-6.2-4-4.4 0-6.2 4.1-6.3 4.2-0.1 0.3-0.1 0.7 0.1 0.9 0.2 0.3 0.5 0.5 0.8 0.5h10.7c0 0 0 0 0 0 0.6 0 1-0.4 1-1C290.4 76.7 290.4 76.4 290.2 76.3z" fill="#ee3e38" data-fill-palette-color="accent"></path><path d="M311.2 28.5c-1.8-0.8-3.8 0.1-4.6 1.9l-15.1 35.4c-0.8 1.8 0.1 3.8 1.9 4.6 0.4 0.2 0.9 0.3 1.4 0.3 1.4 0 2.7-0.8 3.2-2.1l2.7-6.4 5.1 10.6h-7.1c-1.4 0-2.5 1.1-2.5 2.5s1.1 2.5 2.5 2.5h11.1c0.9 0 1.7-0.4 2.1-1.2 0.5-0.7 0.5-1.6 0.1-2.4L303.4 56l9.7-22.9C313.9 31.3 313 29.3 311.2 28.5z" fill="#ee3e38" data-fill-palette-color="accent"></path><path fill="#ee3e38" d="M264 20.8c-2.5 0-4.8 0.9-6.5 2.4-0.9-1.5-2.5-2.4-4.4-2.4-2.9 0-5.2 2.3-5.2 5.2 0 2.9 2.3 5.2 5.2 5.2 0.3 0 0.6 0 0.9-0.1 0.2 5.4 4.6 9.6 10 9.6 5.5 0 10-4.5 10-10S269.5 20.8 264 20.8z" data-fill-palette-color="accent"></path></svg></g></g></svg></g><defs><mask id="ef5d2c62-c33c-4028-87d9-7efc14a8eeeb"><rect width="640" height="400" fill="white"></rect><rect width="200.6527659574468" height="254.74118208" fill="black" x="219.67361702127658" y="72.62940896" id="transform-me" transform="matrix(1,0,0,1,-122.24000000000001,-76.4)"></rect></mask></defs></svg><rect width="395.52" height="247.2" fill="none" stroke="none" visibility="hidden"></rect></g></svg></g></svg>